<svg xmlns="http://www.w3.org/2000/svg" width="1997.525" height="857.231" viewBox="0 0 1997.525 857.231">
  <g id="BACKGROUND" transform="translate(0.085 0.085)">
    <path id="Path_2713" data-name="Path 2713" d="M.08,606.066S27.5-140.554,446.695,244.945,714.775-64.445,966.3,238.989s405.825-412.3,1014.146-198.272" transform="translate(-0.08 -0.072)" fill="none" stroke="#f6851f" stroke-width="0.17"/>
    <path id="Path_2714" data-name="Path 2714" d="M.16,610.343s31.753-737.652,448.9-354.889S721.78-56.567,977.187,244.27,1385.5-169.692,1980.6,39.592" transform="translate(0.117 1.122)" fill="none" stroke="#f6851f" stroke-width="0.17"/>
    <path id="Path_2715" data-name="Path 2715" d="M.24,614.69S36.425-113.994,451.46,266.1,728.751-48.618,988.174,249.656s410.845-415.728,992.712-211.223" transform="translate(0.314 2.211)" fill="none" stroke="#f6851f" stroke-width="0.17"/>
    <path id="Path_2716" data-name="Path 2716" d="M.32,618.977S40.937-100.6,453.826,276.623,735.756-40.73,998.988,254.947s413.3-417.494,981.944-217.525" transform="translate(0.511 3.395)" fill="none" stroke="#f6851f" stroke-width="0.16"/>
    <path id="Path_2717" data-name="Path 2717" d="M.4,623.349S45.449-87.433,456.087,287.228s286.64-320.02,553.785-26.94,415.763-419.225,971.244-223.931" transform="translate(0.708 4.494)" fill="none" stroke="#f6851f" stroke-width="0.16"/>
    <path id="Path_2718" data-name="Path 2718" d="M.48,627.833S49.962-74.119,458.626,297.841,749.732-24.811,1020.79,265.672s418.5-421.026,960.51-230.337" transform="translate(0.905 5.586)" fill="none" stroke="#f6851f" stroke-width="0.16"/>
    <path id="Path_2719" data-name="Path 2719" d="M.57,632.086S54.449-60.759,461.1,308.5s295.608-325.318,570.544-37.431,420.818-422.792,949.775-236.743" transform="translate(1.127 6.664)" fill="none" stroke="#f6851f" stroke-width="0.16"/>
    <path id="Path_2720" data-name="Path 2720" d="M.65,636.513S58.961-47.4,463.366,319.16,763.649-8.824,1042.532,276.5s423.346-424.558,939.076-243.183" transform="translate(1.324 7.708)" fill="none" stroke="#f6851f" stroke-width="0.16"/>
    <path id="Path_2721" data-name="Path 2721" d="M.73,640.96S63.474-33.984,465.662,329.874,770.689-.742,1053.45,281.916s425.908-426.324,928.341-249.589" transform="translate(1.521 8.699)" fill="none" stroke="#f6851f" stroke-width="0.16"/>
    <path id="Path_2722" data-name="Path 2722" d="M.81,645.291S67.986-20.684,468.27,340.576,777.694,7.225,1064.507,287.32s428.159-428.09,917.607-255.857" transform="translate(1.718 9.839)" fill="none" stroke="#f6851f" stroke-width="0.16"/>
    <path id="Path_2723" data-name="Path 2723" d="M.89,649.8S72.5-7.245,470.5,351.21s314.168-335.879,604.72-58.415,430.86-429.821,906.907-262.3" transform="translate(1.915 10.804)" fill="none" stroke="#f6851f" stroke-width="0.16"/>
    <path id="Path_2724" data-name="Path 2724" d="M1,654.272S76.936,6.234,472.823,361.953,791.6,23.374,1086.062,298.31,1519.38-133.208,1982.235,29.537" transform="translate(2.186 11.765)" fill="none" stroke="#f6851f" stroke-width="0.16"/>
    <path id="Path_2725" data-name="Path 2725" d="M1.05,658.836s80.472-639.1,474.212-286.051S798.606,31.5,1096.984,303.877,1532.865-129.51,1982.493,28.63" transform="translate(2.309 12.672)" fill="none" stroke="#f6851f" stroke-width="0.16"/>
    <path id="Path_2726" data-name="Path 2726" d="M1.13,663.368s84.9-630.206,476.532-279.784,327.984-343.912,630.206-74.136,438.374-435.154,874.774-281.723" transform="translate(2.506 13.577)" fill="none" stroke="#f6851f" stroke-width="0.16"/>
    <path id="Path_2727" data-name="Path 2727" d="M1.21,667.956S90.512,46.787,480.062,394.4,812.652,47.826,1118.925,315.04s440.729-436.919,863.9-288.2" transform="translate(2.703 14.46)" fill="none" stroke="#f6851f" stroke-width="0.16"/>
    <path id="Path_2728" data-name="Path 2728" d="M1.29,672.4S95.059,60.168,482.6,405.119s337.021-349.245,647.1-84.662S1572.926-118.194,1983.01,26.13" transform="translate(2.9 15.484)" fill="none" stroke="#f6851f" stroke-width="0.16"/>
    <path id="Path_2729" data-name="Path 2729" d="M1.37,677.049s98.2-603.266,483.492-261.016,341.765-351.911,655.76-89.752,445.818-440.555,842.536-301.044" transform="translate(3.097 16.274)" fill="none" stroke="#f6851f" stroke-width="0.16"/>
    <path id="Path_2730" data-name="Path 2730" d="M1.45,681.67s102.633-594.3,485.743-254.783,346.44-354.543,664.313-95.12,448.346-442.183,831.837-307.312" transform="translate(3.294 17.124)" fill="none" stroke="#f6851f" stroke-width="0.16"/>
    <path id="Path_2731" data-name="Path 2731" d="M1.53,686.328S108.6,101.137,489.766,437.813,840.777,80.6,1162.563,337.4,1613.3-106.519,1983.527,23.677" transform="translate(3.491 17.936)" fill="none" stroke="#f6851f" stroke-width="0.16"/>
    <path id="Path_2732" data-name="Path 2732" d="M1.61,690.854s111.5-576.361,490.383-242.387S847.609,88.835,1173.342,343.1s453.3-445.749,810.265-320.158" transform="translate(3.688 18.743)" fill="none" stroke="#f6851f" stroke-width="0.16"/>
    <path id="Path_2733" data-name="Path 2733" d="M1.69,695.66S117.62,128.232,494.462,459.645,854.58,97.138,1184.3,348.839,1640.052-98.711,1983.86,22.206" transform="translate(3.885 19.512)" fill="none" stroke="#f6851f" stroke-width="0.15"/>
    <path id="Path_2734" data-name="Path 2734" d="M1.77,700.368S122.132,141.874,496.932,470.62s364.654-365.208,698.178-116.138,458.319-449.247,788.934-332.97" transform="translate(4.082 20.275)" fill="none" stroke="#f6851f" stroke-width="0.15"/>
    <path id="Path_2735" data-name="Path 2735" d="M1.85,705.044S126.506,155.553,499.124,481.563s369.467-367.8,706.869-121.367,460.846-451.013,778.2-339.342" transform="translate(4.279 21.036)" fill="none" stroke="#f6851f" stroke-width="0.15"/>
    <path id="Path_2736" data-name="Path 2736" d="M1.93,709.835S131.157,169.278,501.524,492.588s373.968-370.506,715.353-126.6,463.34-452.779,767.5-345.817" transform="translate(4.476 21.715)" fill="none" stroke="#f6851f" stroke-width="0.15"/>
    <path id="Path_2737" data-name="Path 2737" d="M2,714.578S135.694,183.024,504.087,503.667s378.5-373.206,723.7-131.893,465.867-454.544,756.8-352.223" transform="translate(4.648 22.409)" fill="none" stroke="#f6851f" stroke-width="0.15"/>
    <path id="Path_2738" data-name="Path 2738" d="M2.09,719.4s138.2-522.62,504.2-204.713,383.283-375.8,732.389-137.122S1707.039-78.71,1984.744,18.937" transform="translate(4.87 23.058)" fill="none" stroke="#f6851f" stroke-width="0.15"/>
    <path id="Path_2739" data-name="Path 2739" d="M2.17,724.231S144.693,210.544,508.689,525.75,896.508,147.281,1249.7,383.4,1720.623-74.676,1985.033,18.366" transform="translate(5.067 23.698)" fill="none" stroke="#f6851f" stroke-width="0.15"/>
    <path id="Path_2740" data-name="Path 2740" d="M2.25,729.068s146.956-504.684,508.8-192.178S903.548,155.754,1260.48,389.276,1733.827-70.566,1985.078,17.8" transform="translate(5.264 24.297)" fill="none" stroke="#f6851f" stroke-width="0.15"/>
    <path id="Path_2741" data-name="Path 2741" d="M2.33,733.944S153.718,238.194,513.455,548s397.064-383.8,757.909-152.842S1747.2-66.452,1985.3,17.276" transform="translate(5.461 24.892)" fill="none" stroke="#f6851f" stroke-width="0.15"/>
    <path id="Path_2742" data-name="Path 2742" d="M2.41,738.888S158.23,252.106,515.82,559.176s401.7-386.434,766.358-158.071S1760.511-62.27,1985.307,16.749" transform="translate(5.658 25.419)" fill="none" stroke="#f6851f" stroke-width="0.15"/>
    <path id="Path_2743" data-name="Path 2743" d="M2.49,743.761S162.742,265.913,518.22,570.35s406.309-389.1,774.945-163.334,480.861-465.14,692.43-390.728" transform="translate(5.855 25.983)" fill="none" stroke="#f6851f" stroke-width="0.15"/>
    <path id="Path_2744" data-name="Path 2744" d="M2.57,748.91S167.255,280.03,520.585,581.732s410.915-391.939,783.463-168.7,483.285-466.941,681.73-397.2" transform="translate(6.052 26.478)" fill="none" stroke="#f6851f" stroke-width="0.15"/>
    <path id="Path_2745" data-name="Path 2745" d="M2.65,753.719S171.767,293.808,522.985,592.775s415.52-394.4,791.982-173.826,486.02-468.638,670.961-403.539" transform="translate(6.249 26.966)" fill="none" stroke="#f6851f" stroke-width="0.15"/>
    <path id="Path_2746" data-name="Path 2746" d="M2.73,758.715S176.279,307.772,525.385,604.072s420.125-397.1,800.465-179.089S1814.086-45.42,1986.112,15" transform="translate(6.446 27.407)" fill="none" stroke="#f6851f" stroke-width="0.15"/>
    <path id="Path_2747" data-name="Path 2747" d="M2.81,763.755s177.981-442.113,524.941-148.41S952.482,215.615,1336.6,431.028,1827.6-41.177,1986.3,14.642" transform="translate(6.643 27.838)" fill="none" stroke="#f6851f" stroke-width="0.15"/>
    <path id="Path_2748" data-name="Path 2748" d="M2.89,768.82S185.3,335.779,530.151,626.643s429.336-402.362,817.5-189.546,493.326-473.97,638.793-422.792" transform="translate(6.84 28.243)" fill="none" stroke="#f6851f" stroke-width="0.15"/>
    <path id="Path_2749" data-name="Path 2749" d="M3,773.9S189.984,349.828,532.546,638.026s433.941-405.132,826.02-194.844,495.75-475.7,627.99-429.2" transform="translate(7.111 28.599)" fill="none" stroke="#f6851f" stroke-width="0.14"/>
    <path id="Path_2750" data-name="Path 2750" d="M3.05,779.024s191.312-415.1,531.866-129.538,438.547-407.695,834.5-200.073S1867.8-28.159,1986.986,13.7" transform="translate(7.234 28.947)" fill="none" stroke="#f6851f" stroke-width="0.14"/>
    <path id="Path_2751" data-name="Path 2751" d="M3.13,784.233S198.875,378.1,537.281,660.858,980.5,250.5,1380.337,455.556,1881.177-23.746,1987,13.443" transform="translate(7.431 29.245)" fill="none" stroke="#f6851f" stroke-width="0.14"/>
    <path id="Path_2752" data-name="Path 2752" d="M3.22,789.349s200.073-397.2,536.436-117.107S987.414,259.215,1391.2,461.677s503.368-481.069,595.925-448.45" transform="translate(7.653 29.53)" fill="none" stroke="#f6851f" stroke-width="0.14"/>
    <path id="Path_2753" data-name="Path 2753" d="M3.3,794.581S207.874,406.347,542.057,683.776s452.363-415.52,860.058-215.794,505.826-482.834,585.191-454.96" transform="translate(7.85 29.769)" fill="none" stroke="#f6851f" stroke-width="0.14"/>
    <path id="Path_2754" data-name="Path 2754" d="M3.38,799.791S212.387,420.525,544.422,695.184,1001.494,276.859,1413,474.127,1921.352-10.4,1987.489,12.865" transform="translate(8.047 29.995)" fill="none" stroke="#f6851f" stroke-width="0.14"/>
    <path id="Path_2755" data-name="Path 2755" d="M3.46,805.089s213.439-370.3,543.362-98.34,461.574-421.026,877.059-226.32,510.882-486.3,563.757-467.7" transform="translate(8.244 30.169)" fill="none" stroke="#f6851f" stroke-width="0.14"/>
    <path id="Path_2756" data-name="Path 2756" d="M3.54,810.395s217.871-361.364,545.647-92.107S1015.4,294.63,1434.8,486.739,1948.14-1.324,1987.822,12.631" transform="translate(8.441 30.334)" fill="none" stroke="#f6851f" stroke-width="0.14"/>
    <path id="Path_2757" data-name="Path 2757" d="M3.62,815.7s222.3-352.4,547.967-85.84,470.923-426.289,894.1-236.777S1961.551,3.253,1988.006,12.568" transform="translate(8.638 30.466)" fill="none" stroke="#f6851f" stroke-width="0.14"/>
    <path id="Path_2758" data-name="Path 2758" d="M3.7,821.025S230.435,477.6,553.953,741.384s475.424-428.99,902.614-242.04S1975,7.887,1988.155,12.527" transform="translate(8.835 30.541)" fill="none" stroke="#f6851f" stroke-width="0.14"/>
    <path id="Path_2759" data-name="Path 2759" d="M3.78,826.5S234.948,492.006,556.353,753.16s480.064-431.622,911.132-247.3S1988.339,12.53,1988.339,12.53" transform="translate(9.032 30.607)" fill="none" stroke="#f6851f" stroke-width="0.14"/>
  </g>
</svg>
