<svg xmlns="http://www.w3.org/2000/svg" xmlns:xlink="http://www.w3.org/1999/xlink" width="152.398" height="142.967" viewBox="0 0 152.398 142.967">
  <defs>
    <clipPath id="clip-path">
      <rect id="Rectangle_60" data-name="Rectangle 60" width="152.398" height="142.967" fill="none"/>
    </clipPath>
  </defs>
  <g id="Layer_4" data-name="Layer 4" transform="translate(-67.456 -43.282)">
    <g id="Group_101" data-name="Group 101" transform="translate(67.456 43.282)" opacity="0.5">
      <g id="Group_100" data-name="Group 100" clip-path="url(#clip-path)">
        <path id="Path_2705" data-name="Path 2705" d="M295.624,253.943v-4.124a9.191,9.191,0,0,0-1.459-.144,5.491,5.491,0,0,0-4.468,1.964v-1.689H285.36v17.914h4.468v-8.041c0-2.464-.046-4.084.839-5.123,1.493-1.757,4.135-.976,4.957-.752" transform="translate(-188.852 -149.659)" fill="#1a0e03"/>
        <path id="Path_2706" data-name="Path 2706" d="M148.77,263.209V238.73H164.9v4.262H153.549v5.743h9.661V253h-9.661v5.95H164.9v4.262Z" transform="translate(-130.712 -145.002)" fill="#1a0e03"/>
        <path id="Path_2707" data-name="Path 2707" d="M305.75,247.135v-5.3h4.468v5.3h3.963v3.412h-3.963v8.615c0,1.034.482,1.62,1.551,1.62h2.412v3.779h-3.239a4.841,4.841,0,0,1-5.169-5.123v-12.3Z" transform="translate(-197.531 -146.326)" fill="#1a0e03"/>
        <path id="Path_2708" data-name="Path 2708" d="M335.839,263.209V252.3c0-2.372-1.511-3.165-2.923-3.165s-2.872.827-2.872,3.165v10.913H325.57V238.73h4.474v8.2a5.9,5.9,0,0,1,4.3-1.861c3.917,0,5.979,2.757,5.979,6.536v11.585Z" transform="translate(-205.968 -145.002)" fill="#1a0e03"/>
        <path id="Path_2709" data-name="Path 2709" d="M195.164,266.506a6.22,6.22,0,0,1-4.365,1.614,5.318,5.318,0,0,1-4.336-1.786v8.15H182V250h4.336v1.689a5.428,5.428,0,0,1,4.468-1.9,6.226,6.226,0,0,1,4.365,1.62c1.786,1.786,1.821,4.847,1.821,7.53s-.034,5.778-1.821,7.564m-5.7-12.687c-2.682,0-3.027,2.2-3.027,5.123s.345,5.169,3.027,5.169,3.027-2.234,3.027-5.169-.345-5.123-3.027-5.123" transform="translate(-144.857 -149.706)" fill="#1a0e03"/>
        <path id="Path_2710" data-name="Path 2710" d="M229.345,268.074h-3.676l-3.75-11.24-3.751,11.24h-3.676l-5.5-17.914h4.744l2.889,11.073,3.647-11.073h3.268l3.676,11.073L230.1,250.16h4.71Z" transform="translate(-156.345 -149.867)" fill="#1a0e03"/>
        <path id="Path_2711" data-name="Path 2711" d="M267.505,265.924a7.42,7.42,0,0,1-5.571,2.2,7.335,7.335,0,0,1-5.537-2.2c-1.614-1.683-2.027-3.71-2.027-6.978s.414-5.261,2.027-6.95a7.357,7.357,0,0,1,5.537-2.2,7.467,7.467,0,0,1,5.571,2.2c1.614,1.689,2.027,3.716,2.027,6.95s-.414,5.3-2.027,6.978m-3.475-11.309a2.826,2.826,0,0,0-2.1-.793,2.728,2.728,0,0,0-2.062.793c-.93.925-1.034,2.475-1.034,4.331s.1,3.446,1.034,4.365a2.728,2.728,0,0,0,2.062.793,2.826,2.826,0,0,0,2.1-.793c.93-.925,1.034-2.51,1.034-4.365s-.1-3.406-1.034-4.331" transform="translate(-175.661 -149.71)" fill="#1a0e03"/>
        <path id="Path_2712" data-name="Path 2712" d="M225.12,107.21a33.565,33.565,0,0,0-3.228,66.975c.086,2.464.149,4.193.167,4.428a2.478,2.478,0,0,0,2.47,1.872,2.579,2.579,0,0,0,1.93-1,2.223,2.223,0,0,1-1.114.322,2.416,2.416,0,0,1-2.384-1.8c-.086-.919-.913-25.357-.913-25.357a51.072,51.072,0,0,1-10.677,1.39c-6.232,0-12.9-1.574-12.9-6.484,0-2.975,2.613-6.186,7.283-9.764a38.941,38.941,0,0,1,10.625-5.531c.235-.029.4,0,.488.121.2.264,0,.546-.528.856-2.251,1.424-11.895,7.283-11.895,12.038,0,2.7,3.371,4.595,10.378,4.451,9.724-.132,20.378-3.578,29.338-8.851,0,0,1.367-1.017,1.78-.574s-.23.942-.821,1.476c-1.8,1.631-11.326,7.467-16.26,9.063-.092,1.769-.77,16.323-1.1,23.37a33.559,33.559,0,0,0-2.642-67m-8.845,39.349c-2.343,0-3.86-.172-4.825-.821a2.872,2.872,0,0,1-1.223-2.527,3.848,3.848,0,0,1,3.2-3.567.333.333,0,0,1,.333.144.35.35,0,0,1,0,.373,1.637,1.637,0,0,0-.3.862c0,.948,1.281,1.556,4.02,1.545,3.854,0,11.292-1.453,18.672-5.663,6.461-3.687,9.247-7.283,9.236-8.724,0-1.637-1.826-1.838-3.165-1.838-3.073,0-8.879,1.149-14.991,3.01h-.04a4.463,4.463,0,1,1-6.467,3.986c0-1.183.574-3.888,5.066-5.169,5.227-1.476,12.636-3.526,17.644-3.526h0c1.959,0,7.535.333,7.535,4.1,0,6.082-19.867,17.8-34.714,17.8" transform="translate(-148.922 -89.02)" fill="#1a0e03"/>
      </g>
    </g>
  </g>
</svg>
