<svg xmlns="http://www.w3.org/2000/svg" xmlns:xlink="http://www.w3.org/1999/xlink" width="173.189" height="63.896" viewBox="0 0 173.189 63.896">
  <defs>
    <clipPath id="clip-path">
      <rect id="Rectangle_55" data-name="Rectangle 55" width="64.132" height="63.896" fill="none"/>
    </clipPath>
    <clipPath id="clip-path-2">
      <rect id="Rectangle_58" data-name="Rectangle 58" width="72.247" height="38.476" fill="none"/>
    </clipPath>
  </defs>
  <g id="OMG__EPA_vic" transform="translate(-56.907 -82.814)">
    <g id="Layer_1" data-name="Layer 1" transform="translate(56.907 82.815)">
      <g id="Group_99" data-name="Group 99" opacity="0.5">
        <path id="Path_2662" data-name="Path 2662" d="M133.82,219.5h7.266v.879h-5.927V223h5.749v1.166h-5.749V227.1h6.054v1.16H133.82" transform="translate(-113.953 -176.349)" fill="#1a0e03"/>
        <g id="Group_97" data-name="Group 97" clip-path="url(#clip-path)">
          <path id="Path_2663" data-name="Path 2663" d="M150.8,223.464v-3.107h3.446a1.367,1.367,0,0,1,1.534,1.459c0,.913-.442,1.631-1.769,1.631m-4.595,4.79h1.338v-3.624h3.412a2.645,2.645,0,0,0,2.935-2.826c0-1.706-1.028-2.3-3.021-2.3h-4.618Z" transform="translate(-120.593 -176.345)" fill="#1a0e03"/>
          <path id="Path_2664" data-name="Path 2664" d="M167.6,224.46h-3.446l1.723-4.02m3.383,7.8H170.8l-4.1-8.759h-1.534l-4.089,8.759h1.442l1.149-2.63H168.1Z" transform="translate(-125.557 -176.341)" fill="#1a0e03"/>
          <path id="Path_2665" data-name="Path 2665" d="M107.208,239.49h1.442l-3.963,9.035h-1.43L99.23,239.49h1.516l3.262,7.645" transform="translate(-99.23 -184.858)" fill="#1a0e03"/>
          <rect id="Rectangle_53" data-name="Rectangle 53" width="1.332" height="9.034" transform="translate(10.235 54.632)" fill="#1a0e03"/>
          <path id="Path_2666" data-name="Path 2666" d="M129.8,242.578a2.8,2.8,0,0,0-3.09-2.3c-2.142,0-3.5,1.229-3.5,3.7a3.213,3.213,0,0,0,3.446,3.481,2.964,2.964,0,0,0,3.165-2.527h1.31a4.281,4.281,0,0,1-4.52,3.687,4.753,4.753,0,0,1-.017-9.505c1.815,0,4.308.77,4.537,3.481" transform="translate(-108.867 -184.701)" fill="#1a0e03"/>
          <path id="Path_2667" data-name="Path 2667" d="M141.767,240.644H138.35V239.49h8.173v1.154H143.1v7.88h-1.332" transform="translate(-115.882 -184.858)" fill="#1a0e03"/>
          <path id="Path_2668" data-name="Path 2668" d="M161.041,243.83a3.686,3.686,0,1,1-3.687-3.59,3.387,3.387,0,0,1,3.687,3.59m-8.7,0c0,2.326,1.384,4.75,5.014,4.75s5.026-2.424,5.026-4.75-1.39-4.75-5.026-4.75-5.014,2.43-5.014,4.75" transform="translate(-121.836 -184.683)" fill="#1a0e03"/>
          <path id="Path_2669" data-name="Path 2669" d="M173.528,243.534v-2.872h3.8c1.074,0,1.6.574,1.6,1.442,0,.632-.322,1.43-1.643,1.43m-5.094,5h1.338v-3.842h3.509c1.114,0,1.66.494,1.752,2.119.063,1.086.063,1.47.276,1.723h1.419c-.3-.35-.356-.77-.425-2.458-.052-1.068-.523-1.815-1.321-1.93h0a2.154,2.154,0,0,0,1.522-2.228,2.3,2.3,0,0,0-2.47-2.4h-5.6Z" transform="translate(-130.286 -184.87)" fill="#1a0e03"/>
          <rect id="Rectangle_54" data-name="Rectangle 54" width="1.338" height="9.034" transform="translate(51.444 54.632)" fill="#1a0e03"/>
          <path id="Path_2670" data-name="Path 2670" d="M199.68,244.725h-3.446l1.723-4.02m3.383,7.8h1.533l-4.1-9.035h-1.534l-4.1,9.035H194.6l1.149-2.631h4.428Z" transform="translate(-139.207 -184.849)" fill="#1a0e03"/>
          <path id="Path_2671" data-name="Path 2671" d="M121.089,171.561v-3.578H103.968a29.292,29.292,0,0,1,3.848-7.564h13.423v-3.641H110.751l.431-.442a27.879,27.879,0,0,1,18.6-8.3v31.1h3.63V160.419h21.934c3.1,4.451,4.543,8.954,4.52,11.148H163.5c.04-4.21-3.107-11.889-9.006-17.839a32.7,32.7,0,0,0-45.908.04c-5.881,5.939-9.012,13.606-8.971,17.8m33.818-14.8v-8.736a27.77,27.77,0,0,1,18.505,8.259l.471.482Z" transform="translate(-99.396 -144.354)" fill="#1a0e03"/>
        </g>
        <g id="Group_98" data-name="Group 98" transform="translate(100.942 12.71)" clip-path="url(#clip-path-2)">
          <path id="Path_2672" data-name="Path 2672" d="M103.627,200.388c0,1.654,1.287,2.3,2.745,2.3.959,0,2.418-.281,2.418-1.551s-1.861-1.562-3.687-2.05-3.7-1.2-3.7-3.532c0-2.539,2.4-3.762,4.646-3.762,2.59,0,4.974,1.149,4.974,4.02h-2.642c-.092-1.493-1.149-1.878-2.458-1.878-.867,0-1.878.368-1.878,1.413,0,.953.574,1.08,3.7,1.878.907.224,3.693.8,3.693,3.618,0,2.3-1.792,3.98-5.169,3.98-2.751,0-5.324-1.355-5.29-4.417Z" transform="translate(-200.916 -177.265)" fill="#1a0e03"/>
          <path id="Path_2673" data-name="Path 2673" d="M128.173,207.274h-2.349v-1.252h-.052a3.211,3.211,0,0,1-2.751,1.5c-2.631,0-3.291-1.482-3.291-3.71V198.28h2.452v5.083c0,1.476.437,2.211,1.585,2.211,1.338,0,1.913-.752,1.913-2.579V198.28h2.475Z" transform="translate(-208.898 -180.027)" fill="#1a0e03"/>
          <path id="Path_2674" data-name="Path 2674" d="M137.395,204.185c0,1.08.925,1.516,1.9,1.516.718,0,1.62-.276,1.62-1.149,0-.747-1.028-1.011-2.8-1.39-1.424-.316-2.872-.821-2.872-2.4,0-2.3,1.982-2.872,3.911-2.872s3.779.666,3.969,2.872h-2.355c-.063-.959-.8-1.218-1.683-1.218-.574,0-1.373.1-1.373.833,0,.884,1.39,1.005,2.8,1.338s2.872.85,2.872,2.521c0,2.366-2.05,3.136-4.107,3.136s-4.124-.787-4.227-3.17Z" transform="translate(-215.414 -179.861)" fill="#1a0e03"/>
          <path id="Path_2675" data-name="Path 2675" d="M152.653,196.292h1.809v1.654h-1.809V202.4c0,.839.207,1.045,1.045,1.045a3.778,3.778,0,0,0,.764-.069v1.947a9.457,9.457,0,0,1-1.442.092c-1.516,0-2.837-.35-2.837-2.142v-5.307H148.69v-1.654h1.493v-2.7h2.47Z" transform="translate(-221.224 -178.039)" fill="#1a0e03"/>
          <path id="Path_2676" data-name="Path 2676" d="M158.8,200.865c.138-2.3,2.211-3.015,4.227-3.015,1.792,0,3.952.408,3.952,2.562v4.681a4.635,4.635,0,0,0,.31,2h-2.5a3.629,3.629,0,0,1-.172-.867,4.135,4.135,0,0,1-3.027,1.114c-1.723,0-3.061-.856-3.061-2.7,0-2.033,1.528-2.521,3.061-2.734s2.923-.172,2.923-1.149-.735-1.218-1.6-1.218a1.439,1.439,0,0,0-1.637,1.355Zm5.709,1.826a4.978,4.978,0,0,1-2.056.523c-.764.138-1.459.419-1.459,1.321s.712,1.149,1.511,1.149a1.837,1.837,0,0,0,2-2.068Z" transform="translate(-225.409 -179.844)" fill="#1a0e03"/>
          <path id="Path_2677" data-name="Path 2677" d="M176.925,194.349H174.45V192.31h2.475Zm-2.47,1.39h2.47v8.994h-2.47Z" transform="translate(-232.189 -177.486)" fill="#1a0e03"/>
          <path id="Path_2678" data-name="Path 2678" d="M180.14,198.1h2.349v1.252h.052a3.211,3.211,0,0,1,2.751-1.5c2.625,0,3.285,1.482,3.285,3.71v5.531h-2.47v-5.077c0-1.482-.436-2.217-1.579-2.217-1.344,0-1.918.752-1.918,2.579v4.715h-2.47Z" transform="translate(-234.611 -179.844)" fill="#1a0e03"/>
          <path id="Path_2679" data-name="Path 2679" d="M195.783,200.865c.138-2.3,2.211-3.015,4.227-3.015,1.8,0,3.952.408,3.952,2.562v4.681a4.537,4.537,0,0,0,.316,2h-2.521a3.63,3.63,0,0,1-.172-.867,4.13,4.13,0,0,1-3.027,1.114c-1.723,0-3.067-.856-3.067-2.7,0-2.033,1.534-2.521,3.067-2.734s2.923-.172,2.923-1.149-.729-1.218-1.6-1.218a1.436,1.436,0,0,0-1.637,1.355Zm5.709,1.826a4.953,4.953,0,0,1-2.056.523c-.77.138-1.459.419-1.459,1.321s.712,1.149,1.516,1.149a1.835,1.835,0,0,0,2-2.068Z" transform="translate(-241.145 -179.844)" fill="#1a0e03"/>
          <path id="Path_2680" data-name="Path 2680" d="M211.37,192.31h2.47v4.526h.034a3.32,3.32,0,0,1,2.837-1.344c1.792,0,3.722,1.447,3.722,4.733s-1.93,4.756-3.722,4.756a3.123,3.123,0,0,1-2.958-1.39h-.034v1.149H211.37Zm4.486,5.049c-1.459,0-2.1,1.373-2.1,2.872s.643,2.872,2.1,2.872,2.108-1.373,2.108-2.872-.643-2.872-2.108-2.872" transform="translate(-247.904 -177.486)" fill="#1a0e03"/>
          <path id="Path_2681" data-name="Path 2681" d="M230.514,194.349H228.05V192.31h2.464Zm-2.464,1.39h2.464v8.994H228.05Z" transform="translate(-255.004 -177.486)" fill="#1a0e03"/>
          <rect id="Rectangle_56" data-name="Rectangle 56" width="2.47" height="12.429" transform="translate(-23.703 14.824)" fill="#1a0e03"/>
          <rect id="Rectangle_57" data-name="Rectangle 57" width="2.47" height="2.039" transform="translate(-20.441 14.824)" fill="#1a0e03"/>
          <path id="Path_2682" data-name="Path 2682" d="M253.111,196.275l-1.964,6.157h-.034l-2.039-6.163h-3.446v-2.7h-2.475v2.7H239.39v8.994h2.47v-7.334h1.292v5.307c0,1.792,1.327,2.142,2.837,2.142a9.539,9.539,0,0,0,1.447-.092v-1.93a3.854,3.854,0,0,1-.764.069c-.839,0-1.045-.207-1.045-1.045v-4.451h1.424l2.544,6.8a1.149,1.149,0,0,1-.85,1.689,13.333,13.333,0,0,1-1.447-.086v2.033a14.922,14.922,0,0,0,1.516.092,2.793,2.793,0,0,0,3.1-2.039l3.756-10.126Z" transform="translate(-259.831 -178.022)" fill="#1a0e03"/>
          <path id="Path_2683" data-name="Path 2683" d="M171.044,227.527H168.2l-2.516-7.547h2.573l1.378,4.985h.029l1.4-4.985h2.516Z" transform="translate(-228.456 -189.264)" fill="#1a0e03"/>
          <path id="Path_2684" data-name="Path 2684" d="M127.277,184.283v2.849l-7.547,2.51v-2.573l4.985-1.378v-.029l-4.985-1.4V181.75Z" transform="translate(-208.898 -172.991)" fill="#1a0e03"/>
          <path id="Path_2685" data-name="Path 2685" d="M182.61,217.21h-2.47v-1.89h2.47Zm-2.47.787h2.47v7.547h-2.47Z" transform="translate(-234.611 -187.28)" fill="#1a0e03"/>
          <path id="Path_2686" data-name="Path 2686" d="M190.793,222.581a1.149,1.149,0,0,0-1.206-1.091c-1.378,0-1.6,1.177-1.6,2.228s.419,1.976,1.47,1.976a1.321,1.321,0,0,0,1.407-1.292h2.389a3.533,3.533,0,0,1-3.791,3.182,3.756,3.756,0,0,1-3.957-3.865,3.824,3.824,0,0,1,3.957-4.118c1.872,0,3.544.988,3.722,2.981Z" transform="translate(-236.896 -189.102)" fill="#1a0e03"/>
          <path id="Path_2687" data-name="Path 2687" d="M204.232,219.888H202.7v3.446c0,.574.35.729.89.729.2,0,.419-.034.638-.034v1.821c-.448,0-.9.075-1.35.075-2.108,0-2.648-.615-2.648-2.665v-3.354H199V218.3h1.246V216h2.47v2.3h1.528Z" transform="translate(-242.639 -187.57)" fill="#1a0e03"/>
          <path id="Path_2688" data-name="Path 2688" d="M212.717,219.6a4.02,4.02,0,1,1-3.969,4.02,3.871,3.871,0,0,1,3.969-4.02m0,6.094c1.149,0,1.511-1.149,1.511-2.1s-.362-2.108-1.511-2.108-1.493,1.149-1.493,2.108.345,2.1,1.493,2.1" transform="translate(-246.787 -189.101)" fill="#1a0e03"/>
          <path id="Path_2689" data-name="Path 2689" d="M223.666,219.89h2.4v1.327h0a2.3,2.3,0,0,1,2.3-1.47,2.487,2.487,0,0,1,.574.057v2.251a3.5,3.5,0,0,0-.948-.144,1.723,1.723,0,0,0-1.861,1.792v3.733H223.66Z" transform="translate(-253.136 -189.162)" fill="#1a0e03"/>
          <path id="Path_2690" data-name="Path 2690" d="M236.165,217.21H233.69v-1.89h2.475Zm-2.464.8h2.464v7.547H233.69Z" transform="translate(-257.405 -187.28)" fill="#1a0e03"/>
          <path id="Path_2691" data-name="Path 2691" d="M239.256,222.112A2.3,2.3,0,0,1,240.4,220.1a4.888,4.888,0,0,1,2.4-.528c1.792,0,3.521.4,3.521,2.533v3.3a4.446,4.446,0,0,0,.287,1.936h-2.464a2.492,2.492,0,0,1-.144-.712,3.446,3.446,0,0,1-2.493.93,2.26,2.26,0,0,1-2.567-2.3c0-2.452,2.671-2.263,4.388-2.613.419-.086.655-.23.655-.7,0-.574-.683-.781-1.195-.781a1.1,1.1,0,0,0-1.235.942Zm3.2,3.911c1.177,0,1.568-.666,1.511-2.223a7.2,7.2,0,0,1-1.528.408c-.574.126-1.017.362-1.017.959s.482.856,1.034.856" transform="translate(-259.64 -189.087)" fill="#1a0e03"/>
          <path id="Path_2692" data-name="Path 2692" d="M367.122,178.226l-.149,1.051.8-.712.8.712-.149-1.051h.948l-.821-.695.649-.85-1.051.23-.373-1.011-.373,1.011-1.051-.23.655.85-.821.695Z" transform="translate(-313.799 -170.501)" fill="#1a0e03"/>
          <path id="Path_2693" data-name="Path 2693" d="M374.915,192.5l1.022-.534.534,1.017.253-1.206,1.149.471-.54-1.022,1.022-.54-1.218-.253.477-1.143-1.022.54-.54-1.022-.247,1.212-1.149-.477.54,1.022-1.017.54,1.212.253Z" transform="translate(-317.205 -175.996)" fill="#1a0e03"/>
          <path id="Path_2694" data-name="Path 2694" d="M375.555,170.508l-.115,1.223.919-.821.919.821-.109-1.223h1.04l-.9-.8.7-.994-1.166.27-.488-1.166-.494,1.166-1.154-.27.7.994-.9.8Z" transform="translate(-317.345 -167.062)" fill="#1a0e03"/>
          <path id="Path_2695" data-name="Path 2695" d="M384.483,177.787l.936-.132.379.781.373-.781.965.132-.517-.839.5-.81-.942.126-.379-.775-.379.781-.959-.132.517.827Z" transform="translate(-321.58 -170.327)" fill="#1a0e03"/>
          <path id="Path_2696" data-name="Path 2696" d="M379.64,181.809l.465.425-.1.672.58-.3.574.3-.1-.672.465-.425-.672-.121-.264-.569-.27.569Z" transform="translate(-319.529 -172.723)" fill="#1a0e03"/>
          <path id="Path_2697" data-name="Path 2697" d="M306.979,199.159a.7.7,0,0,0-.689.477h1.355a.637.637,0,0,0-.666-.477" transform="translate(-288.307 -180.4)" fill="#1a0e03"/>
          <path id="Path_2698" data-name="Path 2698" d="M322,201.046a.971.971,0,1,0-.856-.959.867.867,0,0,0,.856.959" transform="translate(-294.629 -180.381)" fill="#1a0e03"/>
          <path id="Path_2699" data-name="Path 2699" d="M297.17,201.334c0,.281.218.465.574.465.477,0,.729-.276.729-.787v-.172h-.4c-.574,0-.884.184-.884.517" transform="translate(-284.425 -181.117)" fill="#1a0e03"/>
          <path id="Path_2700" data-name="Path 2700" d="M332.635,199.159a.7.7,0,0,0-.695.477H333.3a.632.632,0,0,0-.66-.477" transform="translate(-299.225 -180.4)" fill="#1a0e03"/>
          <path id="Path_2701" data-name="Path 2701" d="M356.2,199.159a.683.683,0,0,0-.683.477h1.35a.638.638,0,0,0-.666-.477" transform="translate(-309.262 -180.4)" fill="#1a0e03"/>
          <path id="Path_2702" data-name="Path 2702" d="M351.631,215.817c-1.654,0-2.711,1.332-2.711,3.406s1.091,3.389,2.711,3.389,2.734-1.332,2.734-3.446-1.068-3.366-2.734-3.366" transform="translate(-306.453 -187.485)" fill="#1a0e03"/>
          <path id="Path_2703" data-name="Path 2703" d="M388.922,221.72c-1.832,0-2.8.655-2.8,1.821a1.614,1.614,0,0,0,1.792,1.654c1.488,0,2.3-.982,2.3-2.78a5.55,5.55,0,0,0,0-.609,11.323,11.323,0,0,0-1.269-.086" transform="translate(-322.286 -190.004)" fill="#1a0e03"/>
          <path id="Path_2704" data-name="Path 2704" d="M350.093,166.5l-12.28,24.841L325.752,166.5H284.1v38.292h67.009V166.5Zm-19.356,18.287h.218v-.655l.689-.2v.856h.385a.975.975,0,0,0,.161,0l.236-.046-.322.615h-.459v1.424c0,.281.063.373.258.373a1.723,1.723,0,0,0,.655-.144l-.19.643h-.178a2.685,2.685,0,0,1-.437.04.93.93,0,0,1-.574-.167c-.155-.126-.218-.345-.218-.764v-1.43h-.034a2.3,2.3,0,0,0-.5.069Zm-4.893-.075a1.3,1.3,0,0,1,1.258.793,2.166,2.166,0,0,1,.161.764h-2.217a1.092,1.092,0,0,0,.063.35.907.907,0,0,0,.919.517,1.619,1.619,0,0,0,.672-.149,2.384,2.384,0,0,0,.471-.258l-.178.844a1.189,1.189,0,0,1-.184.034,4.047,4.047,0,0,1-.752.08c-1.074,0-1.723-.574-1.723-1.459a1.482,1.482,0,0,1,1.539-1.516m-6.484.236.844-.258v.253a1.212,1.212,0,0,1,.747-.23,1.08,1.08,0,0,1,.9.4,1.568,1.568,0,0,1,.281-.218,1.355,1.355,0,0,1,.678-.178,1.194,1.194,0,0,1,.907.373c.167.2.207.448.207,1.08v1a.442.442,0,0,0,.207.442h-1.1a.436.436,0,0,0,.207-.442v-1.338a.574.574,0,0,0-.115-.425.534.534,0,0,0-.408-.167.615.615,0,0,0-.649.615v1.315a.436.436,0,0,0,.207.442h-1.1c.155-.1.2-.207.2-.442v-1.338a.62.62,0,0,0-.109-.425.574.574,0,0,0-.414-.167.609.609,0,0,0-.643.615v1.315c0,.235.046.345.2.442h-1.126c.155-.1.2-.207.2-.442v-1.821c0-.224-.029-.293-.149-.4m-3.274,0,.844-.258v.253a1.28,1.28,0,0,1,.758-.23,1.2,1.2,0,0,1,.93.373c.167.2.213.448.213,1.08v1a.442.442,0,0,0,.2.442h-1.1a.437.437,0,0,0,.207-.442v-1.338a.661.661,0,0,0-.115-.425.574.574,0,0,0-.437-.167.615.615,0,0,0-.661.615v1.315a.442.442,0,0,0,.2.442h-1.091a.436.436,0,0,0,.207-.442v-1.821c0-.224-.029-.293-.155-.4m-2.062,0,.844-.258v.3a.982.982,0,0,1,.718-.253.907.907,0,0,1,.276.034v.695a.753.753,0,0,0-.408-.115c-.356,0-.574.276-.574.718v1.091a.436.436,0,0,0,.207.442h-1.1c.155-.1.2-.207.2-.442v-1.821c0-.224-.029-.293-.155-.4m-1.723-.235a1.3,1.3,0,0,1,1.264.793,2.166,2.166,0,0,1,.161.764h-2.217a1.092,1.092,0,0,0,.063.35.908.908,0,0,0,.919.517,1.6,1.6,0,0,0,.672-.149,2.764,2.764,0,0,0,.477-.258l-.184.844a1.366,1.366,0,0,1-.19.034,3.888,3.888,0,0,1-.741.08c-1.074,0-1.723-.574-1.723-1.459a1.476,1.476,0,0,1,1.528-1.516m-3.555.075a.212.212,0,0,0-.08.19.638.638,0,0,0,.046.213l.632,1.206.574-1.149a.8.8,0,0,0,.086-.287c0-.063,0-.109-.1-.178h1.011c-.063.08-.092.109-.144.184a3.634,3.634,0,0,0-.27.431l-1.235,2.3-1.332-2.481a.432.432,0,0,0-.046-.08,1.1,1.1,0,0,0-.08-.121.672.672,0,0,0-.2-.218Zm-2.493-.075a1.419,1.419,0,0,1,1.568,1.43,1.5,1.5,0,0,1-1.585,1.545,1.453,1.453,0,0,1-1.591-1.47,1.5,1.5,0,0,1,1.608-1.5m-7.007,4.537h2.361v2.487h-2.361Zm-1.677-4.537a1.3,1.3,0,0,1,1.264.793,2.056,2.056,0,0,1,.155.764h-2.211a1.09,1.09,0,0,0,.063.35.913.913,0,0,0,.919.517,1.6,1.6,0,0,0,.672-.149,2.384,2.384,0,0,0,.471-.258l-.178.844a1.145,1.145,0,0,1-.19.034,4.017,4.017,0,0,1-.747.08c-1.068,0-1.723-.574-1.723-1.459a1.476,1.476,0,0,1,1.528-1.516m-3.446.075h.2v-.655l.695-.2v.856h.379a.975.975,0,0,0,.161,0l.236-.046-.322.615h-.454v1.424c0,.281.057.373.253.373a1.689,1.689,0,0,0,.649-.144l-.184.643h-.178a2.679,2.679,0,0,1-.431.04.9.9,0,0,1-.574-.167c-.161-.126-.224-.345-.224-.764v-1.43h-.034a2.325,2.325,0,0,0-.505.069Zm-1.281.684c-.069-.155-.258-.236-.574-.236a2.3,2.3,0,0,0-.574.075,2.451,2.451,0,0,0-.574.235l.212-.758.224-.029a4.762,4.762,0,0,1,.666-.046,2.573,2.573,0,0,1,.879.121.782.782,0,0,1,.35.218c.115.138.155.3.155.775v.988a2.491,2.491,0,0,0,.034.494.926.926,0,0,0,.1.3h-.695a1.143,1.143,0,0,1,0-.253,1.246,1.246,0,0,1-.942.333c-.735,0-1.149-.339-1.149-.913,0-.678.574-1.051,1.608-1.051a3.622,3.622,0,0,1,.385,0,.575.575,0,0,0-.034-.276m-3.952-.683h.218v-.632l.695-.2v.856h.379a1.061,1.061,0,0,0,.167,0l.23-.046-.316.615h-.459v1.424c0,.281.057.373.253.373a1.723,1.723,0,0,0,.655-.144l-.19.643h-.172a2.741,2.741,0,0,1-.442.04.9.9,0,0,1-.574-.167c-.161-.126-.224-.345-.224-.764v-1.43h-.029a2.417,2.417,0,0,0-.511.069ZM287.96,186.2c-.08-.132-.2-.2-.523-.31l-.3-.109a3.551,3.551,0,0,1-.729-.316.85.85,0,0,1-.465-.77c0-.718.574-1.149,1.562-1.149a4.311,4.311,0,0,1,.758.075h.1l.115.844a3.118,3.118,0,0,0-.419-.236,1.724,1.724,0,0,0-.672-.144c-.437,0-.712.178-.712.454a.351.351,0,0,0,.1.264c.109.121.281.2.781.362a2.258,2.258,0,0,1,.89.425,1.028,1.028,0,0,1,.322.764c0,.764-.666,1.258-1.723,1.258a5.112,5.112,0,0,1-1.149-.144l-.109-.867a2.661,2.661,0,0,0,.31.19,2.062,2.062,0,0,0,.988.258c.546,0,.907-.247.907-.615a.574.574,0,0,0-.075-.276m9.93,4.721-.184.436-5.387,12.061-5.364-11.895c-.057-.1-.132-.293-.258-.54s-.224-.442-.316-.632a3.205,3.205,0,0,0-.867-1.063h3.739a.735.735,0,0,0-.327.666,4.268,4.268,0,0,0,.31,1.195l3.211,7.363,3.3-7.564a3.446,3.446,0,0,0,.3-1.068.77.77,0,0,0-.3-.574h3.234a3.2,3.2,0,0,0-1.149,1.694m1.011,12.251c.5-.333.649-.729.649-1.585v-6.7c0-.816-.092-1.04-.477-1.419l2.653-.9v9.017c0,.856.167,1.252.643,1.585Zm2.47-15.984a1.953,1.953,0,0,1-.741-1.568,2.092,2.092,0,0,1,2.3-2.05,2.735,2.735,0,0,1,.425.029,6.446,6.446,0,0,1,.752.138l.1.907a2.079,2.079,0,0,0-1.315-.523,1.407,1.407,0,0,0-1.5,1.488,1.424,1.424,0,0,0,1.556,1.5,1.723,1.723,0,0,0,.724-.149v-.988a.437.437,0,0,0-.207-.448h1.149c-.161.1-.207.207-.207.448v1.149a.471.471,0,0,0,.063.3,5.56,5.56,0,0,1-1.591.235,2.228,2.228,0,0,1-1.488-.465m9.764,15.9-.31.063a8.38,8.38,0,0,1-2.4.287,4.95,4.95,0,0,1-5.462-5.227,5.021,5.021,0,0,1,5.3-5.29,15.8,15.8,0,0,1,2.384.23h.184l.35,2.567a5.554,5.554,0,0,0-2.918-.873c-1.809,0-2.952,1.3-2.952,3.32s1.149,3.348,2.969,3.348a5.439,5.439,0,0,0,1.826-.373,6.207,6.207,0,0,0,1.516-.816Zm6.938.167-.574.086a9.886,9.886,0,0,1-1.39.121,2.6,2.6,0,0,1-1.821-.574c-.5-.436-.706-1.212-.706-2.7v-5.06H313.4a7.729,7.729,0,0,0-1.6.23l.959-2.194h.683v-2.3l2.2-.718v3.015h1.2a3.022,3.022,0,0,0,.517-.063c.253-.046.385-.086.735-.167l-1.011,2.171h-1.442v5.043c0,1.005.184,1.315.793,1.315a5.036,5.036,0,0,0,2.068-.5Zm6.105.184a4.836,4.836,0,0,1-5.014-5.169,5.022,5.022,0,0,1,5.071-5.33,4.741,4.741,0,0,1,4.962,5.06c0,3.2-2.068,5.456-5.02,5.456m5.462-18.063a.574.574,0,0,0-.436-.167.615.615,0,0,0-.661.615V187.2a.442.442,0,0,0,.2.442h-1.1c.161-.1.2-.207.2-.442v-1.821c0-.224,0-.293-.149-.4l.844-.258v.253a1.281,1.281,0,0,1,.758-.23,1.183,1.183,0,0,1,.93.373c.167.2.212.448.212,1.08v1a.442.442,0,0,0,.2.442h-1.143c.155-.1.2-.207.2-.442v-1.338a.574.574,0,0,0-.109-.425m6.054,10.241a2.228,2.228,0,0,0-1.275-.414c-1.149,0-1.861.982-1.861,2.55v3.831c0,.856.167,1.252.643,1.585h-3.446c.494-.333.643-.729.643-1.585v-6.456c0-.8-.092-1.028-.482-1.4l2.659-.9v1.068a2.918,2.918,0,0,1,2.269-.9,3.071,3.071,0,0,1,.867.109Zm.793,7.553c.5-.333.649-.729.649-1.585V194.93c0-.816-.092-1.04-.482-1.419l2.659-.9v9.017c0,.856.161,1.252.643,1.585Zm10.849,0a6.894,6.894,0,0,1-.075-.9,3.653,3.653,0,0,1-2.969,1.149c-2.3,0-3.653-1.189-3.653-3.216,0-2.407,1.809-3.722,5.072-3.722a9.947,9.947,0,0,1,1.218.08,2.3,2.3,0,0,0-.109-.982c-.218-.574-.827-.816-1.884-.816a6.318,6.318,0,0,0-1.809.253,7.747,7.747,0,0,0-1.878.839l.683-2.682.7-.1a13.489,13.489,0,0,1,2.1-.167,7.564,7.564,0,0,1,2.774.419,2.614,2.614,0,0,1,1.1.77c.368.505.477,1.068.477,2.74V200.4a9.872,9.872,0,0,0,.132,1.758,3.584,3.584,0,0,0,.31,1.045Z" transform="translate(-278.862 -166.5)" fill="#1a0e03"/>
        </g>
      </g>
    </g>
  </g>
</svg>
