<svg xmlns="http://www.w3.org/2000/svg" xmlns:xlink="http://www.w3.org/1999/xlink" width="212.802" height="38.74" viewBox="0 0 212.802 38.74">
  <defs>
    <clipPath id="clip-path">
      <rect id="Rectangle_51" data-name="Rectangle 51" width="212.802" height="38.74" fill="none"/>
    </clipPath>
  </defs>
  <g id="Layer_4" data-name="Layer 4" transform="translate(-36.946 -95.398)">
    <g id="Group_96" data-name="Group 96" transform="translate(36.946 95.399)" opacity="0.5">
      <path id="Path_2652" data-name="Path 2652" d="M426,212.195l-4.026-3.745-4.026,3.745,4.026,3.745Z" transform="translate(-215.084 -184.23)" fill="#1a0e03"/>
      <g id="Group_95" data-name="Group 95" clip-path="url(#clip-path)">
        <path id="Path_2653" data-name="Path 2653" d="M409.286,167.385c-.27-.89-2.412.391-7.036,4.25,1.844,1.878,2.768.81,4.244.3,1.183,2.085,1.654,11.527-6.077,14.359.2-9.505.3-19.683.3-19.683,0-.264-.241-.339-.46-.322-2.119.276-5.893,3.75-8.8,6.68,1.6,2.452,3.636.247,5.244-.356,0,.4-.379,7.415-.207,14.542-7.966.574-6.685-14.531-6.22-16.461.184-1.551-5.129,1.872-7.771,4.158.827,1.4,1.993,1.114,3.446.574-.528,6.777,4.595,12.934,10.562,12.785.218,6.973.994,13.744,3.17,14.227.287.063.523-7.082.695-15.008,14.359-4.147,8.891-20.1,8.891-20.1" transform="translate(-199.999 -166.283)" fill="#1a0e03"/>
        <path id="Path_2654" data-name="Path 2654" d="M119.889,196.157V176.29H114.26v20.045c0,4.3,2.251,6.668,7.788,6.668H125.6v-3.831h-2.3c-2.475,0-3.446-.649-3.446-3.015" transform="translate(-85.818 -170.541)" fill="#1a0e03"/>
        <path id="Path_2655" data-name="Path 2655" d="M253.806,176.76,245.478,197l-8.322-20.24H229v26.42h5.629V187.42c0-1.017-.04-2.757-.155-3.86h.172l8.139,19.643h5.209l8.127-19.643h.167c-.115,1.1-.155,2.872-.155,3.86V203.2h5.634v-26.42Z" transform="translate(-134.658 -170.741)" fill="#1a0e03"/>
        <path id="Path_2656" data-name="Path 2656" d="M145.275,208.09c7.082,0,10.62-2.3,10.62-8.552V187.62h-5.629v11.912c0,3.607-2.378,4.928-4.991,4.928s-5-1.321-5-4.928V187.62H134.65v11.918c0,6.249,3.538,8.552,10.625,8.552" transform="translate(-94.497 -175.363)" fill="#1a0e03"/>
        <path id="Path_2657" data-name="Path 2657" d="M182.559,194.709c0,3.607,3.067,4.928,5.68,4.928s5.68-1.321,5.68-4.928v-3.624c0-3.6-3.061-4.922-5.68-4.922s-5.68,1.321-5.68,4.922Zm16.656-3.515V194.4c0,6.243-4.061,8.862-11.142,8.862s-11.142-2.3-11.142-8.552V176.29h5.629v7.535a15.967,15.967,0,0,1,6.358-1.292c7.254,0,10.3,3.716,10.3,8.661" transform="translate(-112.494 -170.541)" fill="#1a0e03"/>
        <path id="Path_2658" data-name="Path 2658" d="M350.246,191.085c0-3.6-3.061-4.922-5.68-4.922s-5.68,1.321-5.68,4.922v3.624c0,3.607,3.067,4.928,5.68,4.928s5.68-1.321,5.68-4.928Zm-6.352-8.552a16.081,16.081,0,0,1,6.352,1.292V176.29h5.634v18.425c0,6.243-4.061,8.552-11.148,8.552s-11.142-2.619-11.142-8.862v-3.211c0-4.951,3.05-8.661,10.3-8.661" transform="translate(-179.176 -170.541)" fill="#1a0e03"/>
        <path id="Path_2659" data-name="Path 2659" d="M296.152,195.792c0-3.682,3.061-5.117,5.68-5.117s5.68,1.436,5.68,5.117Zm12.877,6.467a11.636,11.636,0,0,1-6.852,2c-3.32,0-6.025-1.694-6.025-4.928V198.9h16.823v-1.625c0-6.243-4.055-10.114-11.142-10.114s-11.142,3.871-11.142,10.114v.821c0,6.036,3.883,9.8,11.447,9.8a16.377,16.377,0,0,0,10.338-3.124Z" transform="translate(-160.916 -175.168)" fill="#1a0e03"/>
        <path id="Path_2660" data-name="Path 2660" d="M78.214,203.267c-8.782,0-13.474-4.336-13.474-11.372v-3.607c0-7.311,4.87-12,13.474-12,7.467,0,12,3.481,13.061,8.2h-6c-1.028-3.17-3.532-4.595-7.059-4.595-4.865,0-7.6,2.7-7.6,8.489v2.625c.017,5.25,2.039,8.661,7.6,8.661,3.526,0,6.031-1.436,7.059-4.595h6c-1.063,4.721-5.583,8.2-13.061,8.2" transform="translate(-64.74 -170.541)" fill="#1a0e03"/>
        <path id="Path_2661" data-name="Path 2661" d="M268.213,239.743a2.579,2.579,0,0,0-2.487-1.338c-1.4,0-2.751.7-2.751,2.246,0,1.419,1.4,1.832,1.907,1.959l1.022.241c.781.19,1.419.448,1.419,1.195,0,.862-.9,1.241-1.752,1.241a2.263,2.263,0,0,1-1.964-1.114l-.907.62a3.262,3.262,0,0,0,2.872,1.453c1.447,0,2.872-.672,2.872-2.3a2.142,2.142,0,0,0-1.815-2.039l-1.068-.253c-.971-.224-1.465-.477-1.465-1.177,0-.8.816-1.114,1.545-1.114a1.723,1.723,0,0,1,1.608,1Zm-6.082-1.149h-2.154v-2.108h-1.051v2.108h-1.574v.953h1.574v4.7a1.736,1.736,0,0,0,1.849,1.993,3.59,3.59,0,0,0,1.419-.27l-.052-.976a2.3,2.3,0,0,1-1.08.287c-.655,0-1.086-.224-1.086-1.338v-4.394h2.154Zm-9.431,7.467h1.051v-4.193a2.338,2.338,0,0,1,2.3-2.389,1.792,1.792,0,0,1,.6.08l.207-1.034a2.8,2.8,0,0,0-.775-.1,2.447,2.447,0,0,0-2.389,1.579h-.034v-1.384h-1.034c0,1.08.063,1.654.063,2.3Zm-3.251-3.722a2.815,2.815,0,1,1-2.82-2.964,2.757,2.757,0,0,1,2.82,2.964m1.149,0a3.957,3.957,0,1,0-3.969,3.917,3.814,3.814,0,0,0,3.969-3.917m-9.511-2.6a2.579,2.579,0,0,0-2.481-1.338c-1.4,0-2.757.7-2.757,2.246,0,1.419,1.4,1.832,1.913,1.959l1.017.241c.781.19,1.419.448,1.419,1.195,0,.862-.89,1.241-1.752,1.241a2.252,2.252,0,0,1-1.959-1.114l-.925.643a3.251,3.251,0,0,0,2.872,1.453c1.447,0,2.9-.672,2.9-2.3a2.142,2.142,0,0,0-1.821-2.039l-1.063-.253c-.976-.224-1.47-.477-1.47-1.177,0-.8.816-1.114,1.545-1.114a1.723,1.723,0,0,1,1.614,1Zm-13.061,2.01a2.619,2.619,0,0,1,2.613-2.389,2.246,2.246,0,0,1,2.418,2.389Zm6.18.862v-.477a3.494,3.494,0,0,0-3.567-3.728,3.922,3.922,0,1,0,3.3,6.26l-.81-.666a2.837,2.837,0,0,1-2.389,1.287,2.8,2.8,0,0,1-2.74-2.676Zm-11.918,3.446h1.051v-4.193a2.338,2.338,0,0,1,2.3-2.389,1.832,1.832,0,0,1,.609.08l.207-1.034a2.872,2.872,0,0,0-.781-.1,2.458,2.458,0,0,0-2.389,1.579h-.034v-1.384h-1.034c.034,1.08.063,1.654.063,2.3Zm-11.516-4.3a2.625,2.625,0,0,1,2.613-2.389,2.251,2.251,0,0,1,2.424,2.389Zm6.18.85v-.477a3.494,3.494,0,0,0-3.567-3.728,3.922,3.922,0,1,0,3.3,6.26l-.81-.666a2.786,2.786,0,0,1-5.129-1.39Zm-8.391-4.02h-1.195l-2.372,6.318h-.034l-2.372-6.272H201.33l3.027,7.467h1.177Zm-8.684-2.872a.764.764,0,1,0-.764.764.775.775,0,0,0,.764-.764m-.236,2.872H198.59v7.467h1.051Zm-3.268,1.149a2.579,2.579,0,0,0-2.481-1.338c-1.4,0-2.757.7-2.757,2.246,0,1.419,1.4,1.832,1.913,1.959l1.017.241c.781.19,1.419.448,1.419,1.195,0,.862-.89,1.241-1.752,1.241a2.252,2.252,0,0,1-1.959-1.114l-.907.62a3.251,3.251,0,0,0,2.872,1.453c1.447,0,2.9-.672,2.9-2.3a2.142,2.142,0,0,0-1.821-2.039l-1.063-.253c-.976-.224-1.465-.477-1.465-1.177,0-.8.81-1.114,1.545-1.114a1.723,1.723,0,0,1,1.608,1Zm-7.334,6.318c0-.54-.08-1.241-.08-1.637v-5.8H187.89v3.819c0,2.722-2.039,2.872-2.263,2.872-1.556,0-2.022-.907-2.022-2.562v-4.124h-1.057v4.727c0,1.849.907,2.918,2.8,2.918a3.01,3.01,0,0,0,2.5-1.39h.034a10.34,10.34,0,0,0,.046,1.195ZM179.958,234h-1.051v12.061h1.051Zm-2.751,5.686a3.618,3.618,0,0,0-2.728-1.292,3.923,3.923,0,1,0,0,7.84,3.618,3.618,0,0,0,2.728-1.292l-.862-.655a2.228,2.228,0,0,1-1.867.988,2.965,2.965,0,0,1,0-5.922,2.228,2.228,0,0,1,1.867.988Zm-15.312-1.1c.034.54.08,1.241.08,1.637v5.835h1.051v-3.819c0-2.722,2.039-2.872,2.263-2.872,1.562,0,2.022.907,2.022,2.562v4.13h1.051v-4.727c0-1.849-.907-2.918-2.8-2.918a3,3,0,0,0-2.5,1.384h-.034a10.285,10.285,0,0,0-.046-1.189Zm-2.3-2.872a.764.764,0,1,0-.764.764.775.775,0,0,0,.764-.764m-.235,2.872h-1.057v7.467h1.057Zm-3.124,3.1h-4.1v1.051h4.1ZM150.075,234h-1.068v12.061h1.051Zm-3.906,0H145.1v12.061h1.051Zm-4.853,8.328v.546a2.176,2.176,0,0,1-2.263,2.4c-.844,0-1.752-.379-1.752-1.367,0-1.5,2.4-1.579,3.446-1.579Zm-.528-.862c-1.786,0-4.635.161-4.635,2.585a2.3,2.3,0,0,0,2.567,2.183,2.786,2.786,0,0,0,2.625-1.4h.023a7.466,7.466,0,0,0,.092,1.206h1.022a12.2,12.2,0,0,1-.126-1.671v-3.325a2.5,2.5,0,0,0-2.728-2.648,4.267,4.267,0,0,0-3.153,1.086l.638.747a3.308,3.308,0,0,1,2.3-.873,1.69,1.69,0,0,1,1.913,1.924v.19Zm-22.4,4.595h1.051v-3.819c0-2.722,1.849-2.872,2.1-2.872,1.453,0,1.878.827,1.878,2.338v4.354h1.051V242.1c0-1.384.546-2.722,2.108-2.722,1.447,0,1.878.827,1.878,2.338v4.348h1.051v-4.727c0-1.849-.907-2.918-2.8-2.918a2.717,2.717,0,0,0-2.452,1.545,2.366,2.366,0,0,0-2.378-1.545,2.872,2.872,0,0,0-2.4,1.321h-.034v-1.149h-1.149c.034.574.08,1.1.08,1.654Zm-2.47,0c0-.54-.08-1.241-.08-1.637v-5.8h-1.051v3.819c0,2.722-2.039,2.872-2.257,2.872-1.562,0-2.027-.907-2.027-2.562v-4.124h-1.051v4.727c0,1.849.907,2.918,2.8,2.918a3.01,3.01,0,0,0,2.5-1.39h0a9.188,9.188,0,0,0,.052,1.195Zm-8.839-10.338a.764.764,0,1,0-.764.764.775.775,0,0,0,.764-.764m-.241,2.872h-1.08v7.467h1.051ZM91.9,246.061h1.051v-3.819c0-2.722,1.849-2.872,2.1-2.872,1.453,0,1.884.827,1.884,2.338v4.354h1.051V242.1c0-1.384.54-2.722,2.1-2.722,1.447,0,1.878.827,1.878,2.338v4.348h1.051v-4.727c0-1.849-.907-2.918-2.8-2.918a2.722,2.722,0,0,0-2.5,1.556,2.361,2.361,0,0,0-2.372-1.545,2.872,2.872,0,0,0-2.407,1.321H92.9V238.6H91.756c.034.574.08,1.1.08,1.654Zm-8.173-4.3a2.625,2.625,0,0,1,2.613-2.389,2.251,2.251,0,0,1,2.424,2.389Zm6.151.85v-.477a3.5,3.5,0,0,0-3.572-3.728,3.923,3.923,0,0,0,.1,7.84,3.883,3.883,0,0,0,3.2-1.579l-.81-.666a2.786,2.786,0,0,1-5.129-1.39Zm-11.918,3.446h1.051v-4.193a2.338,2.338,0,0,1,2.3-2.389,1.793,1.793,0,0,1,.6.08l.207-1.034a2.873,2.873,0,0,0-.781-.1,2.458,2.458,0,0,0-2.389,1.579h0v-1.384H77.9c0,1.08.063,1.654.063,2.3Zm-7.817-10.212H72c2.05,0,2.751.873,2.751,1.959s-.7,1.976-2.751,1.976H70.149ZM69,246.061h1.149v-5.227H72.28c2.3,0,3.716-1.005,3.716-3.027s-1.419-3.01-3.716-3.01H69Z" transform="translate(-66.553 -195.105)" fill="#1a0e03"/>
      </g>
    </g>
  </g>
</svg>
