<svg xmlns="http://www.w3.org/2000/svg" width="221.842" height="94.917" viewBox="0 0 221.842 94.917">
  <g id="Layer_4" data-name="Layer 4" transform="translate(-32.285 -67.307)">
    <path id="Path_2634" data-name="Path 2634" d="M73.69,226.455l.35,4.491c-2.16,1.43-3.906,1.809-7.03,1.809-6.036,0-10.12-4.02-10.12-10.528S60.974,211.7,67.01,211.7c3,0,5.169.287,7.03,1.78L73.69,218h-.379c-.816-4.813-3.934-5.922-6.318-5.922-3.033,0-6.387,1.338-6.387,10.149,0,8.954,3.446,10.149,6.387,10.149a6.214,6.214,0,0,0,6.318-5.922Z" transform="translate(-24.605 -90.214)" fill="#1a0e03" opacity="0.5"/>
    <path id="Path_2635" data-name="Path 2635" d="M107.209,226.618v6.071H92.54v-.379c1.223,0,1.574-1.051,1.574-3.038v-14c0-1.809-.293-2.745-1.574-2.745v-.379h14.29v5.255h-.379c-.35-4.813-5.393-4.876-7.759-4.876H97.118v9.6h1.9c.787,0,3.877,0,4.02-2.946h.379v6.272h-.379c-.149-2.918-3.3-2.946-4.02-2.946h-1.9v9.8h1.344c2.6,0,7.754.144,8.368-5.692Z" transform="translate(-39.78 -90.406)" fill="#1a0e03" opacity="0.5"/>
    <path id="Path_2636" data-name="Path 2636" d="M145.31,212.133v.35c-4.227,0-4.141,4.2-4.141,6.892v13.273h-.93l-12.394-15.984v8.69c0,2.567,0,6.892,3.819,6.892v.379H123.2v-.379c4.227,0,4.227-4.29,4.227-6.892v-9.132l-1.195-1.545c-1.867-2.332-2.711-2.16-3.446-2.217v-.35h5.393l12.6,16.277V219.4c0-2.711,0-6.892-3.819-6.892v-.35Z" transform="translate(-52.656 -90.389)" fill="#1a0e03" opacity="0.5"/>
    <path id="Path_2637" data-name="Path 2637" d="M180.766,212.15v5.135h-.379c-.115-4.692-4.985-4.756-5.393-4.756h-1.723v17.34c0,1.924.907,2.452,2.131,2.452v.379H168.28v-.379c1.223,0,2.1-.528,2.1-2.452v-17.34h-1.723c-.907,0-5.25.063-5.37,4.756h-.379V212.15Z" transform="translate(-69.733 -90.406)" fill="#1a0e03" opacity="0.5"/>
    <path id="Path_2638" data-name="Path 2638" d="M202.594,212.529h-.907v10.338h.907c3.3,0,5.8,0,5.8-5.169,0-5.307-2.682-5.169-5.8-5.169m12.159,20.16h-2.217c-3.733,0-3.291-.034-4.957-6.364-.816-3.061-3.762-3.061-4.52-3.061h-1.373v6.387c0,2.016.643,2.659,1.867,2.659v.379H197v-.379c1.252,0,1.809-.574,1.809-3.038V214.746c0-1.809-.528-2.217-1.809-2.217v-.379h5.571c5.8,0,9.012.7,9.012,5.571,0,3.969-2.3,5.135-5.428,5.341,1.924.086,3.94.293,5.456,6.68a3.228,3.228,0,0,0,3.119,2.567Z" transform="translate(-84.243 -90.406)" fill="#1a0e03" opacity="0.5"/>
    <path id="Path_2639" data-name="Path 2639" d="M241.548,226.091l-3.819-9.684-3.532,9.684Zm7.174,6.594h-6.651v-.379c1.574,0,1.287-1.666.615-3.3l-1.022-2.539H234.11c-.787,2.332-2.073,5.95,1.981,5.835v.379h-6.5v-.379c1.108-.029,1.838-.149,4.371-6.892l4.87-13.273h.322c3.561,8.575,7.179,17.8,7.179,17.8.959,2.338,1.574,2.3,2.389,2.366Z" transform="translate(-98.115 -90.402)" fill="#1a0e03" opacity="0.5"/>
    <path id="Path_2640" data-name="Path 2640" d="M280.934,226.359v6.318H266.38V232.3c1.258,0,1.6-1.108,1.6-3.1V214.982c0-1.78-.574-2.452-1.832-2.452v-.379h6.938v.379c-1.252,0-2.16.5-2.16,2.6V232.31h1.051c3.124.029,8.081,0,8.575-5.95Z" transform="translate(-113.677 -90.406)" fill="#1a0e03" opacity="0.5"/>
    <path id="Path_2641" data-name="Path 2641" d="M318.547,223.551c3.561,0,6.473-.086,6.473-5.485,0-5.542-3.061-5.514-6.473-5.514h-.523v11Zm-.523,5.169c0,3.5,1.045,3.618,2.872,3.618v.379h-7.7v-.379c1.43,0,1.924-.758,1.924-3.532V215.274c0-2.016-.408-2.745-1.867-2.745v-.379h5.278c5.807,0,9.655.7,9.655,5.893s-3.848,5.864-9.655,5.864h-.523Z" transform="translate(-133.704 -90.406)" fill="#1a0e03" opacity="0.5"/>
    <path id="Path_2642" data-name="Path 2642" d="M350.868,226.1l-3.819-9.683-3.532,9.683Zm7.174,6.594H351.4v-.379c1.574,0,1.281-1.666.609-3.3l-1.022-2.539H343.43c-.787,2.332-2.068,5.95,1.987,5.835v.379H338.91v-.379c1.108-.029,1.838-.149,4.377-6.892l4.865-13.267h.322c3.555,8.575,7.174,17.8,7.174,17.8.965,2.338,1.574,2.3,2.389,2.366Z" transform="translate(-144.648 -90.406)" fill="#1a0e03" opacity="0.5"/>
    <path id="Path_2643" data-name="Path 2643" d="M380.281,212.529h-.907v10.338h.907c3.3,0,5.8,0,5.8-5.169,0-5.307-2.682-5.169-5.8-5.169m12.165,20.16h-2.217c-3.739,0-3.3-.034-4.962-6.364-.816-3.061-3.762-3.061-4.52-3.061h-1.373v6.387c0,2.016.643,2.659,1.867,2.659v.379h-6.53v-.379c1.252,0,1.809-.574,1.809-3.038V214.746c0-1.809-.528-2.217-1.809-2.217v-.379h5.571c5.8,0,9.012.7,9.012,5.571,0,3.969-2.3,5.135-5.422,5.341,1.924.086,3.934.293,5.451,6.68a3.234,3.234,0,0,0,3.124,2.567Z" transform="translate(-159.886 -90.406)" fill="#1a0e03" opacity="0.5"/>
    <path id="Path_2644" data-name="Path 2644" d="M428.591,232.689h-3.119c-3.1,0-3.762-.879-6.858-5.284-1.66-2.389-3.234-4.463-3.234-4.463l3.67-4.463c1.666-1.953,5.049-5.887.7-5.95v-.379h8.041v.379c-2.131,0-3.733.7-10.034,8.782,3.412,4.549,7,9.362,7,9.362a4.675,4.675,0,0,0,3.848,1.637ZM416.1,212.15v.379c-1.281,0-2.3.178-2.3,2.3V229.61c0,1.987.7,2.688,1.959,2.688v.379H409V232.3c1.229,0,1.867-.7,1.867-2.688V214.838c0-1.809-.609-2.3-1.867-2.3v-.379Z" transform="translate(-174.481 -90.406)" fill="#1a0e03" opacity="0.5"/>
    <path id="Path_2645" data-name="Path 2645" d="M193.757,278.624a.425.425,0,0,0,.419-.425.471.471,0,0,0-.477-.414h-.477v.839Zm-.075-1.6a.414.414,0,0,0,.408-.419.4.4,0,0,0-.408-.4h-.459v.816Zm-1.367-1.545a.109.109,0,0,1,.109-.109h1.361a1.045,1.045,0,0,1,.574,2,1.114,1.114,0,0,1,.781.953,1.189,1.189,0,0,1-1.275,1.149h-1.447a.109.109,0,0,1-.109-.109Z" transform="translate(-82.247 -117.308)" fill="#1a0e03" opacity="0.5"/>
    <path id="Path_2646" data-name="Path 2646" d="M210.266,278.578a1.149,1.149,0,1,0-1.149-1.149,1.149,1.149,0,0,0,1.149,1.149m0-3.268a2.1,2.1,0,1,1-1.484.616,2.1,2.1,0,0,1,1.484-.616" transform="translate(-88.998 -117.29)" fill="#1a0e03" opacity="0.5"/>
    <path id="Path_2647" data-name="Path 2647" d="M227.438,277.377l-1.177-1.826a.1.1,0,0,1,.1-.161h.873a.126.126,0,0,1,.092.052l.672,1.086h0l.683-1.086a.115.115,0,0,1,.092-.052h.85c.1,0,.155.086.1.161l-1.189,1.826,1.229,1.936c.052.08,0,.161-.1.161h-.81a.126.126,0,0,1-.1-.052L228,278.244h0l-.747,1.177a.138.138,0,0,1-.1.052h-.833c-.1,0-.149-.086-.1-.161Z" transform="translate(-96.67 -117.324)" fill="#1a0e03" opacity="0.5"/>
    <path id="Path_2648" data-name="Path 2648" d="M256.07,275.5a.115.115,0,0,1,.109-.109h.695a.109.109,0,0,1,.109.109v1.47h1.671V275.5a.109.109,0,0,1,.109-.109h.712a.115.115,0,0,1,.109.109v3.865a.115.115,0,0,1-.109.109h-.695a.109.109,0,0,1-.109-.109v-1.539H257v1.539a.109.109,0,0,1-.109.109H256.2a.115.115,0,0,1-.109-.109Z" transform="translate(-109.387 -117.324)" fill="#1a0e03" opacity="0.5"/>
    <rect id="Rectangle_49" data-name="Rectangle 49" width="0.925" height="4.084" rx="0.19" transform="translate(157.016 158.066)" fill="#1a0e03" opacity="0.5"/>
    <path id="Path_2649" data-name="Path 2649" d="M287.57,275.5a.109.109,0,0,1,.109-.109h.712a.115.115,0,0,1,.109.109v3.113h1.39a.115.115,0,0,1,.115.109v.638a.115.115,0,0,1-.115.109H287.7a.109.109,0,0,1-.109-.109Z" transform="translate(-122.795 -117.324)" fill="#1a0e03" opacity="0.5"/>
    <path id="Path_2650" data-name="Path 2650" d="M302.91,275.5a.115.115,0,0,1,.115-.109h.695a.115.115,0,0,1,.109.109v3.113h1.39a.109.109,0,0,1,.109.109v.638a.109.109,0,0,1-.109.109h-2.194a.115.115,0,0,1-.115-.109Z" transform="translate(-129.324 -117.324)" fill="#1a0e03" opacity="0.5"/>
    <path id="Path_2651" data-name="Path 2651" d="M238.558,126.089v.93a8.512,8.512,0,0,1,6.691,4.825,8.253,8.253,0,0,1,.534,6.128,8.5,8.5,0,0,1-8.219,6.2v-3.308a5.008,5.008,0,0,0,4.239-2.3,4.934,4.934,0,0,0,1.005-3.446,5.347,5.347,0,0,0-4.25-4.784v4.1a6.605,6.605,0,0,1-7.311-5.278,6.105,6.105,0,0,1,1.39-5.25,6.249,6.249,0,0,1,4.9-2.338v-1.045a7.524,7.524,0,0,0-3.641,14.089,7.943,7.943,0,0,0,4.641.942v3.124a11.435,11.435,0,0,1-4.227-.5,9.976,9.976,0,0,1-4.422-2.814c-3.412-3.865-4.066-8.144-1.528-12.7a10.367,10.367,0,0,1,10.177-5.227v1.022h-1.051a9.62,9.62,0,0,0-8.839,6.031,9.868,9.868,0,0,0-.643,2.872,9.649,9.649,0,0,0,2.872,7.467,9.373,9.373,0,0,0,3.446,2.165,9,9,0,0,0,3.038.574h.2v-.879a8.615,8.615,0,0,1-7.288-4.089,8.208,8.208,0,0,1-1.252-5.537A8.495,8.495,0,0,1,232,121.454a8.811,8.811,0,0,1,6.548-2.022v3.257h-.322a6.232,6.232,0,0,0-2.475.327,5.238,5.238,0,0,0-3.308,3.584,4.865,4.865,0,0,0,.144,3.228,6,6,0,0,0,1.086,1.723,5.491,5.491,0,0,0,3,1.723c.281.057.574.063.89.1V129.19a5.439,5.439,0,0,1,2.481.471,6.318,6.318,0,0,1,3.343,3.36,5.962,5.962,0,0,1-.27,5.611,6.53,6.53,0,0,1-4.537,3.331v1.1a7.537,7.537,0,0,0-1.011-15v-3.1a9.236,9.236,0,0,1,3.159.477,10.269,10.269,0,0,1,6.318,5.462,10.011,10.011,0,0,1-.281,9.844,10.648,10.648,0,0,1-8.23,5.485v9.913h-.982V145.128a9.43,9.43,0,0,0,7.632-3.893,9.057,9.057,0,0,0,1.867-6.141,9.592,9.592,0,0,0-8.512-9.006" transform="translate(-96.934 -50.063)" fill="#1a0e03" opacity="0.5"/>
  </g>
</svg>
