<svg xmlns="http://www.w3.org/2000/svg" xmlns:xlink="http://www.w3.org/1999/xlink" width="215.369" height="78.353" viewBox="0 0 215.369 78.353">
  <defs>
    <clipPath id="clip-path">
      <rect id="Rectangle_47" data-name="Rectangle 47" width="215.369" height="78.353" fill="none"/>
    </clipPath>
  </defs>
  <g id="OMG__Carfinder" transform="translate(-36.149 -75.589)">
    <g id="Layer_1" data-name="Layer 1" transform="translate(36.149 75.589)">
      <g id="Group_94" data-name="Group 94" opacity="0.5">
        <g id="Group_93" data-name="Group 93" clip-path="url(#clip-path)">
          <path id="Path_2633" data-name="Path 2633" d="M151.789,196.4a8.615,8.615,0,0,1-6.565-2.768A9.729,9.729,0,0,1,142.554,187a9.31,9.31,0,0,1,2.533-6.5,9.086,9.086,0,0,1,6.823-3,8.581,8.581,0,0,1,7.662,4.319l-2.562,2.148a5.6,5.6,0,0,0-5.364-3.268,6.284,6.284,0,0,0,.155,12.532,5.64,5.64,0,0,0,5.2-3.4l2.59,2.1A8.431,8.431,0,0,1,151.8,196.4m22.974-2.665a8.144,8.144,0,0,1-6.013,2.619,9.144,9.144,0,0,1-9.362-9.431,9.4,9.4,0,0,1,2.567-6.565,8.518,8.518,0,0,1,6.6-2.791,8.259,8.259,0,0,1,6.2,2.636l3.268-2.165v17.9h-3.268Zm-5.835-.465a6.289,6.289,0,0,0-.063-12.567,6.123,6.123,0,0,0-6.134,6.163,6.214,6.214,0,0,0,6.2,6.4M195.2,177.762v.27h3.371v2.814H195.33v15.1h-3.216v-15.1h-2.137v-2.8h2.033v-.534c0-3.664,2.033-5.927,6.1-5.927a4.911,4.911,0,0,1,4.934,5.169h-3.383c0-3.084-4.486-3.234-4.486,1.045m4.468.241h3.417v17.9h-3.417Zm7,17.925V178.038h3.1v2.033a6.036,6.036,0,0,1,5-2.332c4.635,0,7.265,2.8,7.265,7.995v10.2H218.77v-9.5c0-3.768-1.361-5.6-4.331-5.6-3.446,0-4.566,2.332-4.566,6.967v8.133Zm32.5-2.2a8.144,8.144,0,0,1-5.979,2.585,9.145,9.145,0,0,1-9.368-9.431,9.4,9.4,0,0,1,2.567-6.565,8.518,8.518,0,0,1,6.6-2.768,8.391,8.391,0,0,1,6.249,2.613v-7.972h3.234v23.7h-3.268Zm-5.83-.465a6.289,6.289,0,0,0-.069-12.567,6.122,6.122,0,0,0-6.094,6.128,6.214,6.214,0,0,0,6.2,6.4m30.291,2.665v-17.9h3.033v1.413c1.063-1.6,2.493-1.723,4.233-1.723,1.614,0,2.108.764,2.108.764l-2.108,2.6c-2.033-1.424-4.13,1.183-4.02,4.02v10.832Zm-83.217,0v-17.9h2.814v1.413c1.068-1.6,2.711-1.723,4.451-1.723a4.187,4.187,0,0,1,1.338.27l-.574,2.8c-2.872-1.1-5.129,1.476-5.037,4.29v10.832Zm72.368-2.734a6.268,6.268,0,0,0,5.824-4.02l2.809,1.08c-.086.2-.172.4-.264.574a8.935,8.935,0,0,1-8.368,5.542,8.742,8.742,0,0,1-6.6-2.8,9.764,9.764,0,0,1-2.665-6.634,9.356,9.356,0,0,1,2.533-6.536,8.73,8.73,0,0,1,6.662-2.929,9.155,9.155,0,0,1,7.736,4.187,10.529,10.529,0,0,1,1.534,6v.5H246.924a5.876,5.876,0,0,0,5.864,5.031m.034-12.567a5.9,5.9,0,0,0-5.8,4.635h11.435c-.8-2.935-2.872-4.635-5.634-4.635m-137.269-1.378a5.606,5.606,0,1,0,3.97,1.642,5.611,5.611,0,0,0-3.97-1.642m10.195,6.117a10.2,10.2,0,1,1-.942-4.819l10.04-2.378a20.43,20.43,0,1,0,1.131,6.691q0-.959-.086-1.9Z" transform="translate(-76.389 -145.69)" fill="#1a0e03"/>
        </g>
      </g>
    </g>
  </g>
</svg>
