<svg xmlns="http://www.w3.org/2000/svg" width="157.107" height="159.725" viewBox="0 0 157.107 159.725">
  <g id="bullhorn" transform="translate(-2 -1)">
    <path id="Path_1" data-name="Path 1" d="M93.646,89.606H88.409V63.945a2.618,2.618,0,1,0-5.237,0V89.606H15.092V37.237H36.878a2.618,2.618,0,0,0,0-5.237h-24.4a2.618,2.618,0,0,0-2.618,2.618V89.606H4.618A2.618,2.618,0,0,0,2,92.224v5.237a13.092,13.092,0,0,0,13.092,13.092h68.08A13.092,13.092,0,0,0,96.264,97.461V92.224A2.618,2.618,0,0,0,93.646,89.606Zm-2.618,7.855a7.855,7.855,0,0,1-7.855,7.855H77.935V102.7a2.618,2.618,0,0,0-5.237,0v2.618H25.566V102.7a2.618,2.618,0,0,0-5.237,0v2.618H15.092a7.855,7.855,0,0,1-7.855-7.855V94.843h83.79Z" transform="translate(0 50.172)" fill="#f6851f"/>
    <path id="Path_2" data-name="Path 2" d="M62.092,11.237h5.237a2.618,2.618,0,1,0,0-5.237H62.092a7.855,7.855,0,0,0-7.855,7.855v2.618H51.618a2.618,2.618,0,1,0,0,5.237h2.618v7.855a2.618,2.618,0,1,0,5.237,0V21.711h2.618a2.618,2.618,0,1,0,0-5.237H59.474V13.855A2.618,2.618,0,0,1,62.092,11.237Z" transform="translate(76.067 8.092)" fill="#f6851f"/>
    <path id="Path_3" data-name="Path 3" d="M83.277,2H51.855A7.855,7.855,0,0,0,44,9.855v5.237a2.618,2.618,0,1,0,5.237,0V9.855a2.618,2.618,0,0,1,2.618-2.618H83.277A2.618,2.618,0,0,1,85.9,9.855V41.277A2.618,2.618,0,0,1,83.277,43.9H51.855a2.618,2.618,0,0,1-2.618-2.618V25.566a2.618,2.618,0,1,0-5.237,0V41.277a7.855,7.855,0,0,0,7.855,7.855H83.277a7.855,7.855,0,0,0,7.855-7.855V9.855A7.855,7.855,0,0,0,83.277,2Z" transform="translate(67.975 1.618)" fill="#f6851f"/>
    <path id="Path_4" data-name="Path 4" d="M49,48.474A10.474,10.474,0,1,0,59.474,38,10.474,10.474,0,0,0,49,48.474Zm15.711,0a5.237,5.237,0,1,1-5.237-5.237A5.237,5.237,0,0,1,64.711,48.474Z" transform="translate(76.067 59.882)" fill="#f6851f"/>
    <path id="Path_5" data-name="Path 5" d="M83.277,33H51.855A7.855,7.855,0,0,0,44,40.855V72.277a7.855,7.855,0,0,0,7.855,7.855H83.277a7.855,7.855,0,0,0,7.855-7.855V67.04a2.618,2.618,0,0,0-5.237,0v5.237A2.618,2.618,0,0,1,83.277,74.9H51.855a2.618,2.618,0,0,1-2.618-2.618V40.855a2.618,2.618,0,0,1,2.618-2.618H83.277A2.618,2.618,0,0,1,85.9,40.855V56.566a2.618,2.618,0,0,0,5.237,0V40.855A7.855,7.855,0,0,0,83.277,33Z" transform="translate(67.975 51.79)" fill="#f6851f"/>
    <path id="Path_6" data-name="Path 6" d="M25.231,26.55a2.6,2.6,0,0,0,2.566.1L43.507,18.8a2.618,2.618,0,0,0,0-4.661L27.8,6.283A2.618,2.618,0,0,0,24,8.614V24.324A2.618,2.618,0,0,0,25.231,26.55Zm4.006-13.694,7.227,3.613-7.227,3.613Z" transform="translate(35.606 8.097)" fill="#f6851f"/>
    <path id="Path_7" data-name="Path 7" d="M41.566,48.132A23.566,23.566,0,1,0,18,24.566,23.566,23.566,0,0,0,41.566,48.132Zm0-41.9A18.329,18.329,0,1,1,23.237,24.566,18.329,18.329,0,0,1,41.566,6.237Z" transform="translate(25.895)" fill="#f6851f"/>
    <path id="Path_8" data-name="Path 8" d="M38.619,32.711a2.618,2.618,0,0,0,2.095-1.047L48.569,21.19a2.618,2.618,0,1,0-4.19-3.142L36.524,28.521a2.618,2.618,0,0,0,2.095,4.19Z" transform="translate(55.027 25.895)" fill="#f6851f"/>
    <path id="Path_9" data-name="Path 9" d="M39.524,34.045a2.618,2.618,0,0,0,3.666.524l10.474-7.855a2.618,2.618,0,1,0-3.142-4.19L40.047,30.379a2.618,2.618,0,0,0-.524,3.666Z" transform="translate(59.882 33.987)" fill="#f6851f"/>
    <path id="Path_10" data-name="Path 10" d="M60.5,30.133a2.618,2.618,0,0,0-3.142-2.095L44.265,30.657a2.632,2.632,0,0,0,.524,5.237h.524L58.4,33.275A2.618,2.618,0,0,0,60.5,30.133Z" transform="translate(64.568 43.66)" fill="#f6851f"/>
    <path id="Path_11" data-name="Path 11" d="M4.618,58.132H36.04a2.618,2.618,0,0,0,2.618-2.618v-41.9A2.618,2.618,0,0,0,36.04,11H4.618A2.618,2.618,0,0,0,2,13.618v41.9A2.618,2.618,0,0,0,4.618,58.132Zm2.618-41.9H33.421V52.9H7.237Z" transform="translate(0 16.184)" fill="#f6851f"/>
    <path id="Path_12" data-name="Path 12" d="M15.855,15H10.618a2.618,2.618,0,1,0,0,5.237h5.237a2.618,2.618,0,0,0,0-5.237Z" transform="translate(9.711 22.658)" fill="#f6851f"/>
    <path id="Path_13" data-name="Path 13" d="M19.092,19H8.618a2.618,2.618,0,1,0,0,5.237H19.092a2.618,2.618,0,0,0,0-5.237Z" transform="translate(6.474 29.132)" fill="#f6851f"/>
    <path id="Path_14" data-name="Path 14" d="M19.092,23H8.618a2.618,2.618,0,0,0,0,5.237H19.092a2.618,2.618,0,0,0,0-5.237Z" transform="translate(6.474 35.606)" fill="#f6851f"/>
    <path id="Path_15" data-name="Path 15" d="M79.957,37.921A2.627,2.627,0,1,0,75.4,40.539L86.949,60.518l-41.9,15.711h-.393l-6.808,3.928-4.53,2.618a5.228,5.228,0,0,1-7.148-1.911L20.938,71.8A5.237,5.237,0,0,1,22.9,64.891l9.06-5.237,6.546,11.338a2.627,2.627,0,1,0,4.556-2.618L36.308,56.7l32.861-27.1,1.074,1.859A2.627,2.627,0,0,0,74.8,28.835L72.181,24.3a2.653,2.653,0,0,0-3.954-.707L31.569,53.815,20.414,60.256A10.474,10.474,0,0,0,15.6,72.118L12.978,73.61a7.849,7.849,0,0,0,3.928,14.663,8.012,8.012,0,0,0,3.928-1.047l2.618-1.493a10.159,10.159,0,0,0,4.582,2.723,9.923,9.923,0,0,0,2.749.367,10.317,10.317,0,0,0,5.237-1.414L38.3,86.1l5.237,9.086a7.848,7.848,0,1,0,13.59-7.855l-4.766-8.3L91.636,64.288A2.626,2.626,0,0,0,93,60.544ZM18.11,82.67a2.616,2.616,0,1,1-2.618-4.53l2.278-1.309,2.618,4.53ZM52.568,90a2.616,2.616,0,0,1-4.53,2.618L42.8,83.534l4.347-2.488h.209Z" transform="translate(11.384 35.61)" fill="#f6851f"/>
  </g>
</svg>
